HIERARCHY
ROOT joint_Root
{
	OFFSET 0.0 0.0 0.0
	CHANNELS 6 Xposition Yposition Zposition Zrotation Xrotation Yrotation 
	JOINT Hips
	{
		OFFSET 4.5925 91.4895 -427.239
		CHANNELS 6 Xposition Yposition Zposition Zrotation Xrotation Yrotation 
		JOINT Spine
		{
			OFFSET 15.7357 0.0 0.0
			CHANNELS 6 Xposition Yposition Zposition Zrotation Xrotation Yrotation 
			JOINT Chest
			{
				OFFSET 8.98455 -0.406207 0.0
				CHANNELS 6 Xposition Yposition Zposition Zrotation Xrotation Yrotation 
				JOINT Neck
				{
					OFFSET 16.3773 0.0 0.0
					CHANNELS 6 Xposition Yposition Zposition Zrotation Xrotation Yrotation 
					JOINT Head
					{
						OFFSET 6.45672 0.0 0.0
						CHANNELS 6 Xposition Yposition Zposition Zrotation Xrotation Yrotation 
						End Site
						{
							OFFSET 0.0 0.0 0.0
						}
					}
				}
				JOINT Shoulder_L
				{
					OFFSET 12.9942 -0.242716 4.98039
					CHANNELS 6 Xposition Yposition Zposition Zrotation Xrotation Yrotation 
					JOINT UpperArm_L
					{
						OFFSET 5.34809 0.0 0.0
						CHANNELS 6 Xposition Yposition Zposition Zrotation Xrotation Yrotation 
						JOINT LowerArm_L
						{
							OFFSET 24.3286 1.87007e-05 0.0
							CHANNELS 6 Xposition Yposition Zposition Zrotation Xrotation Yrotation 
							JOINT Hand_L
							{
								OFFSET 22.2916 0.0 0.0
								CHANNELS 6 Xposition Yposition Zposition Zrotation Xrotation Yrotation 
								End Site
								{
									OFFSET 0.0 0.0 0.0
								}
							}
						}
					}
				}
				JOINT Shoulder_R
				{
					OFFSET 12.9945 -0.242716 -4.98039
					CHANNELS 6 Xposition Yposition Zposition Zrotation Xrotation Yrotation 
					JOINT UpperArm_R
					{
						OFFSET -5.34813 0.0 0.0
						CHANNELS 6 Xposition Yposition Zposition Zrotation Xrotation Yrotation 
						JOINT LowerArm_R
						{
							OFFSET -24.3289 0.000322201 0.0
							CHANNELS 6 Xposition Yposition Zposition Zrotation Xrotation Yrotation 
							JOINT Hand_R
							{
								OFFSET -22.2915 -0.000108084 0.0
								CHANNELS 6 Xposition Yposition Zposition Zrotation Xrotation Yrotation 
								End Site
								{
									OFFSET 0.0 0.0 0.0
								}
							}
						}
					}
				}
			}
		}
		JOINT UpperLeg_L
		{
			OFFSET -2.19248 -6.46944 0.0
			CHANNELS 6 Xposition Yposition Zposition Zrotation Xrotation Yrotation 
			JOINT LowerLeg_L
			{
				OFFSET 39.0811 0.0 -1.23785e-05
				CHANNELS 6 Xposition Yposition Zposition Zrotation Xrotation Yrotation 
				JOINT Foot_L
				{
					OFFSET 40.9854 0.0 -1.26872e-05
					CHANNELS 6 Xposition Yposition Zposition Zrotation Xrotation Yrotation 
					JOINT Toes_L
					{
						OFFSET 11.7543 0.0 0.0
						CHANNELS 6 Xposition Yposition Zposition Zrotation Xrotation Yrotation 
						End Site
						{
							OFFSET 0.0 0.0 0.0
						}
					}
				}
			}
		}
		JOINT UpperLeg_R
		{
			OFFSET -2.19251 6.46944 0.0
			CHANNELS 6 Xposition Yposition Zposition Zrotation Xrotation Yrotation 
			JOINT LowerLeg_R
			{
				OFFSET -39.0811 -0.00228153 -0.0401928
				CHANNELS 6 Xposition Yposition Zposition Zrotation Xrotation Yrotation 
				JOINT Foot_R
				{
					OFFSET -40.9854 0.0 0.0
					CHANNELS 6 Xposition Yposition Zposition Zrotation Xrotation Yrotation 
					JOINT Toes_R
					{
						OFFSET -11.7543 0.0 0.0
						CHANNELS 6 Xposition Yposition Zposition Zrotation Xrotation Yrotation 
						End Site
						{
							OFFSET 0.0 0.0 0.0
						}
					}
				}
			}
		}
	}
}
MOTION
Frames:	4
Frame Time:	0.0333333
0.000000 0.000000 0.000000 0.000000 0.000000 -0.000000 8.137520 87.827900 461.916000 -90.988700 17.126800 158.057000 15.735700 0.000005 -0.000001 125.648000 80.007800 -128.711000 8.984550 -0.406207 -0.000000 8.928200 11.558600 -7.041810 16.377300 -0.000001 -0.000001 -2.419300 -4.638590 4.314480 6.456720 -0.000001 -0.000000 -15.190900 -7.407330 -0.787966 12.994200 -0.242716 4.980390 -85.741600 -11.904400 -70.151900 5.348090 -0.000007 -0.000001 -70.103000 20.644600 39.387500 24.328600 0.000019 0.000005 10.673500 25.546500 -23.608600 22.291600 -0.000001 0.000005 -0.380241 5.468490 -5.315650 12.994500 -0.242716 -4.980390 90.305700 -4.312540 -85.940700 -5.348130 -0.000001 -0.000004 -63.744400 -3.788380 -57.874800 -24.328900 0.000322 -0.000009 -15.909700 4.665740 -105.928000 -22.291500 -0.000108 -0.000004 13.551900 5.416990 -3.498370 -2.192480 -6.469440 -0.000000 174.485000 -0.496233 -68.674600 39.081100 -0.000007 -0.000012 0.075350 -0.021051 74.385900 40.985400 -0.000006 -0.000013 -3.250610 -3.658060 -73.550300 11.754300 -0.000000 0.000003 -0.002898 -0.039451 -18.181200 -2.192510 6.469440 -0.000001 163.105000 28.331800 179.216000 -39.081100 -0.002282 -0.040193 0.180347 -0.341901 27.375800 -40.985400 0.000008 0.000006 -3.981530 21.558000 -34.899400 -11.754300 -0.000006 -0.000006 -0.083736 -0.402268 -33.290300
0.000000 0.000000 0.000000 0.000000 0.000000 -0.000000 9.358320 88.396500 452.934000 -89.378500 14.765500 160.521000 15.735700 0.000005 -0.000001 121.128000 79.637800 -123.820000 8.984550 -0.406207 -0.000000 10.361300 10.583400 -6.354920 16.377300 -0.000001 -0.000001 -1.661650 -4.841460 4.642800 6.456720 -0.000001 -0.000000 -15.506500 -7.325900 -0.235841 12.994200 -0.242716 4.980390 -86.742500 -9.381990 -70.754000 5.348090 -0.000007 -0.000001 -68.640100 15.428200 35.365300 24.328600 0.000019 0.000005 10.059700 21.623700 -25.708100 22.291600 -0.000001 0.000005 2.350190 5.458840 -4.958750 12.994500 -0.242716 -4.980390 90.198600 -2.516490 -85.486400 -5.348130 -0.000001 -0.000004 -62.917300 1.656440 -50.509300 -24.328900 0.000322 -0.000009 -15.434300 3.030670 -100.835000 -22.291500 -0.000108 -0.000004 13.417800 5.410250 -3.274280 -2.192480 -6.469440 -0.000000 175.723000 -1.772160 -60.729000 39.081100 -0.000007 -0.000012 -0.009105 0.005429 59.218600 40.985400 -0.000006 -0.000013 -4.408320 -1.468060 -76.786500 11.754300 -0.000000 0.000003 -0.003219 -0.043064 -18.328200 -2.192510 6.469440 -0.000001 162.180000 26.505000 -175.054000 -39.081100 -0.002282 -0.040193 0.227602 -0.396812 29.477800 -40.985400 0.000008 0.000006 -3.664910 15.567100 -30.743300 -11.754300 -0.000006 -0.000006 -0.013432 -0.127703 -21.781100
0.000000 0.000000 0.000000 0.000000 0.000000 -0.000000 10.443300 87.955200 443.952000 -87.711000 14.006000 161.476000 15.735700 0.000005 -0.000001 119.784000 79.673200 -122.249000 8.984550 -0.406207 -0.000000 10.505000 10.132000 -5.870990 16.377300 -0.000001 -0.000001 -1.733670 -4.401140 4.625240 6.456720 -0.000001 -0.000000 -13.936000 -6.996890 0.614583 12.994200 -0.242716 4.980390 -88.300100 -5.010030 -71.230800 5.348090 -0.000007 -0.000001 -67.884100 13.700900 29.774400 24.328600 0.000019 0.000005 8.545120 15.906500 -28.738100 22.291600 -0.000001 0.000005 5.827410 5.464320 -5.150480 12.994500 -0.242716 -4.980390 90.011700 -0.161425 -85.897000 -5.348130 -0.000001 -0.000004 -61.730900 8.232990 -40.680000 -24.328900 0.000322 -0.000009 -12.199300 0.458087 -92.111100 -22.291500 -0.000108 -0.000004 12.352500 5.413180 -3.371080 -2.192480 -6.469440 -0.000000 174.576000 -5.822160 -54.145700 39.081100 -0.000007 -0.000012 -0.021257 0.019753 47.104700 40.985400 -0.000006 -0.000013 -4.313660 -4.530740 -78.099300 11.754300 -0.000000 0.000003 -0.002502 -0.034835 -17.993300 -2.192510 6.469440 -0.000001 166.673000 14.747500 -174.481000 -39.081100 -0.002282 -0.040193 0.204683 -0.266731 37.055000 -40.985400 0.000008 0.000006 0.035711 5.611950 -34.590100 -11.754300 -0.000006 -0.000006 -0.014418 -0.134118 -22.044200
0.000000 0.000000 0.000000 0.000000 0.000000 -0.000000 11.399000 86.579500 434.687000 -85.992000 12.863100 162.606000 15.735700 0.000005 -0.000001 116.563000 79.667600 -118.761000 8.984550 -0.406207 -0.000000 10.999700 9.111510 -5.281330 16.377300 -0.000001 -0.000001 -1.907900 -3.699460 5.076570 6.456720 -0.000001 -0.000000 -13.611400 -6.249680 1.776200 12.994200 -0.242716 4.980390 -90.009200 0.027390 -71.330700 5.348090 -0.000007 -0.000001 -66.207500 12.218100 20.803400 24.328600 0.000019 0.000005 4.254150 7.094340 -31.068100 22.291600 -0.000001 0.000005 7.137890 5.498490 -6.472160 12.994500 -0.242716 -4.980390 89.790000 3.397390 -86.461700 -5.348130 -0.000001 -0.000004 -59.860200 15.262500 -30.674100 -24.328900 0.000322 -0.000009 -11.072500 -2.139540 -79.198600 -22.291500 -0.000108 -0.000004 12.260100 5.434410 -4.091040 -2.192480 -6.469440 -0.000000 171.142000 -10.488100 -51.093000 39.081100 -0.000007 -0.000012 1.042980 -1.006830 46.015100 40.985400 -0.000006 -0.000013 7.314240 -9.061300 -72.187300 11.754300 -0.000000 0.000003 -0.003770 -0.049033 -18.571200 -2.192510 6.469440 -0.000001 172.002000 6.484930 -176.578000 -39.081100 -0.002282 -0.040193 0.196068 -0.156709 50.899200 -40.985400 0.000008 0.000006 2.456060 1.137010 -31.842300 -11.754300 -0.000006 -0.000006 -0.016616 -0.147766 -22.604600
